<svg xmlns="http://www.w3.org/2000/svg" viewBox="0 0 503.57 503.57">
  <defs>
    <style>
      .cls-1 {
        fill: #821978;
      }

      .cls-2 {
        fill: #961982;
      }

      .cls-3 {
        fill: #903d9e;
      }

      .cls-4 {
        fill: #c0207a;
      }

      .cls-5 {
        fill: #eee;
      }

      .cls-6 {
        fill: #1d1d1d;
      }
    </style>
  </defs>
  <g id="Слой_2" data-name="Слой 2">
    <g id="Шут_Висэччё_" data-name="Шут (Висэччё)">
      <rect class="cls-1" width="503.57" height="503.57" rx="55"/>
      <rect class="cls-2" x="288.65" y="36.87" width="178.01" height="178.01" transform="translate(199.61 -230.17) rotate(45)"/>
      <rect class="cls-2" x="288.65" y="288.6" width="178.01" height="178.01" transform="translate(377.62 -156.44) rotate(45)"/>
      <rect class="cls-2" x="36.88" y="36.87" width="178.01" height="178.01" transform="translate(125.87 -52.15) rotate(45)"/>
      <rect class="cls-2" x="36.88" y="288.6" width="178.01" height="178.01" transform="translate(303.88 21.58) rotate(45)"/>
      <path class="cls-3" d="M251.86,65.76h-1.54c-24.43,0-43.12-1.47-51.65-2.3-44.14-4.31-51.54-11.08-62.85-5.39-21.08,10.62-7.61,40.31-24.9,108.1-11.78,46.13-25.59,62.2-18.41,94.25,1.81,8.09,7.5,19.32,18.87,41.77,17.37,34.29,27,52.4,43.14,76.21,44.53,65.48,75.37,77.29,84.34,80.36a116.91,116.91,0,0,0,11.55,3.29l1.32.14"/>
      <path class="cls-4" d="M251.61,65.76h1.54c24.43,0,43.12-1.47,51.65-2.3,44.14-4.31,51.54-11.08,62.85-5.39,21.08,10.62,7.61,40.31,24.91,108.1,11.77,46.13,25.58,62.2,18.4,94.25-1.81,8.09-7.5,19.32-18.87,41.77-17.37,34.29-26.95,52.4-43.14,76.21-44.52,65.48-75.36,77.29-84.34,80.36a116.91,116.91,0,0,1-11.55,3.29l-1.31.14"/>
      <path class="cls-4" d="M212.8,372.29c.24,1.13,8.19-.17,16.63-.32a97.48,97.48,0,0,1,22.29,2.21v13.75c-.88,0-2.2,0-3.79-.05-6.47-.28-12-1.61-28-7.18-9.69-3.36-11.48-4.19-15.39-4.17-4.11,0-7.73,1-8.17-.08s2.34-3,5-5c14.86-10.82,17.06-12.43,23-15.83,6.81-3.9,9-4.71,11.74-4.43,2.24.22,3.58,1,8.38,2.18a69.36,69.36,0,0,0,7.26,1.35v8.92a104.84,104.84,0,0,0-20,1.5,72.23,72.23,0,0,0-15.33,4.9C213.41,371.39,212.72,371.94,212.8,372.29Z"/>
      <path class="cls-3" d="M297.5,368.9a154,154,0,0,1-45.8,5.28q0,6.88,0,13.75c1.11,0,2.39,0,3.79-.05A94.71,94.71,0,0,0,285,382.5a85.4,85.4,0,0,0,29.76-18.91,25.13,25.13,0,0,1-8,1.36c-10.8,0-18.82-7.33-32-12.21,0,0-7-2.59-11.29-.87-.11.05-.89.37-2,.75-.7.24-1.55.52-2.54.79a42.78,42.78,0,0,1-7.26,1.35v8.92a74.59,74.59,0,0,1,19,1.76c5,1.15,8.17,2.45,14.16,3.2A60.92,60.92,0,0,0,297.5,368.9Z"/>
      <path class="cls-5" d="M169.53,306.89c.79,6.89,3.09,10.18,3.85,11.17l.07.1c3.82,4.94,9.88,4.94,13.7,0l.07-.1c.76-1,3.06-4.28,3.85-11.17,1.31-11.52-3.21-19-6.85-33.37a135.35,135.35,0,0,1-3.2-17.35.73.73,0,1,0-1.45,0,135.62,135.62,0,0,1-3.19,17.35C172.74,287.88,168.21,295.37,169.53,306.89Z"/>
      <path class="cls-3" d="M302.54,179.18c13.47,4.69,32.17,2.64,40.11-7,3.49-4.26,1.94-6.39,6-12.82,5.28-8.32,13-12.85,18.63-15.35-5.18,15.41-3.45,25.52-.3,32.23,3.69,7.85,8.71,9.67,16.34,19.42,0,0,9.93,12.68,14.68,28.56,1.57,5.26,10,36-9.2,61.05-17.39,22.64-48.3,28.27-72,21.52-18.12-5.16-29.4-16.8-34.24-22.5,5.24,2.63,35.57,17.27,62.55,3.32,5.2-2.69,20.73-10.76,22.69-25.82,1.43-11-3.94-23.94-13-27.59-6.66-2.67-10.68.13-22.31,3.91-16.57,5.39-31.48-8.45-45-1.56-5.22,2.66-11.4,9.52-13.21,29.29-12.81-39.07-9.81-54.7-3.81-61.38,1.26-1.4,5-5,6.26-10.95,1.66-8-2.24-15.52-5.67-20.55a47.35,47.35,0,0,1,12.32-.19C292.44,173.78,296.23,177,302.54,179.18Z"/>
      <path class="cls-6" d="M303.65,202.87c17.64-10.87,37.34-4.72,41.72-3.31a60.38,60.38,0,0,1,13,6,30.51,30.51,0,0,1-7.19,9.8c-8.4,7.54-18.88,8-23,8.15-9.54.3-11.83-2.8-25.32-3.81a93.9,93.9,0,0,0-14.82.06A44.26,44.26,0,0,1,303.65,202.87Z"/>
      <path class="cls-4" d="M180.26,174.1c-9.12-5.37-7.62-10.9-18.26-16.56-3.54-1.88-13-6.89-21.4-3-6.46,3-11.08,10.57-9.27,13.88s9.26,0,13.12,4.12,1,13,.33,15.13c-8.16,24.33-40.91,32.13-38.87,39.13.87,3,7.53,3.8,11.22,3.65,11.63-.47,19.29-11.51,21-10.11,1.51,1.28-6.32,9.07-4,16.9a13,13,0,0,0,8.61,8.34c5.52,1.6,10.89-1.55,12.78-2.6,13.81-7.66,44-14.9,58.24-7.05,15.14,8.33,11.65,33.27,16.11,33.13,5.39-.17,15.77-36.77.26-66.52-3.68-7.06-9.11-17.48-20.35-22.43C198.08,175,191.44,180.67,180.26,174.1Z"/>
      <path class="cls-5" d="M199.88,202.87c-17.64-10.87-37.35-4.72-41.73-3.31a60.26,60.26,0,0,0-13,6,30.21,30.21,0,0,0,7.19,9.8c8.39,7.54,18.87,8,23,8.15,9.55.3,11.84-2.8,25.33-3.81a93.92,93.92,0,0,1,14.82.06A44.34,44.34,0,0,0,199.88,202.87Z"/>
      <path class="cls-4" d="M251.76,324.49a19.36,19.36,0,0,1-2.47-.1,18.8,18.8,0,0,1-5-1.24c-4.9-1.91-5-3.09-8.08-4-4.2-1.21-5.52.6-7.34-.82-2.88-2.25-1.8-8.48-.78-11.68,1.58-5,4.5-7.3,4.1-7.69-.58-.57-7.76,3.37-11.34,10.82-3.25,6.74-3.26,15.74-.07,17.29,2,1,3.26-1.94,8.37-2.63a21.35,21.35,0,0,1,13.48,2.92,16.22,16.22,0,0,0,7.15,2.87,13.33,13.33,0,0,0,1.92.1Z"/>
      <path class="cls-3" d="M251.7,324.49a14,14,0,0,0,2.47-.1,14.89,14.89,0,0,0,5.23-1.79c3.39-1.82,4-2.82,6.08-4,5.36-3.08,8.82-.89,11.15-3.6,1.62-1.9,1.33-4.6,1.06-6.85-1.09-9.05-7.66-15.69-11.09-18.7a35,35,0,0,1,16.86,16.06,35.43,35.43,0,0,1,1.86,26.31c-4.65-6.07-8.46-7.29-11.05-7.32-3.76,0-5.72,2.43-13.21,4.48a39.62,39.62,0,0,1-7.42,1.31c-.8.06-1.47.09-1.92.1Z"/>
      <path class="cls-6" d="M345.49,131.88a14.25,14.25,0,0,1-1.7,2.74,13.48,13.48,0,0,1-2.9,2.66,76.56,76.56,0,0,0-9.35,8,55.36,55.36,0,0,0-7,9.23c-.43.69-.8,1.31-1.09,1.81a.3.3,0,0,1-.53,0c-.3-.5-.66-1.12-1.1-1.81a54.63,54.63,0,0,0-7-9.23,75.89,75.89,0,0,0-9.36-8,13.21,13.21,0,0,1-4.59-5.4,17.12,17.12,0,0,1-1.84-8.45c.06-1,.64-8.75,7-11.94a12.89,12.89,0,0,1,9.72-.51,13.77,13.77,0,0,1,7.42,6.08,13.81,13.81,0,0,1,7.42-6.08,12.92,12.92,0,0,1,9.73.51c6.36,3.19,6.95,11,7,11.94A17.24,17.24,0,0,1,345.49,131.88Z"/>
    </g>
  </g>
</svg>
