<svg xmlns="http://www.w3.org/2000/svg" viewBox="0 0 503.57 503.57">
  <defs>
    <style>
      .cls-1 {
        fill: #bf933a;
      }

      .cls-2 {
        fill: #cc9b45;
      }

      .cls-3 {
        fill: #eee;
      }

      .cls-4 {
        fill: #e1aa4b;
      }
    </style>
  </defs>
  <g id="Слой_2" data-name="Слой 2">
    <g id="Шут_Цезетто_" data-name="Шут (Цезетто)">
      <rect class="cls-1" width="503.57" height="503.57" rx="55"/>
      <rect class="cls-2" x="288.65" y="36.87" width="178.01" height="178.01" transform="translate(199.61 -230.17) rotate(45)"/>
      <rect class="cls-2" x="288.65" y="288.6" width="178.01" height="178.01" transform="translate(377.62 -156.44) rotate(45)"/>
      <rect class="cls-2" x="36.88" y="36.87" width="178.01" height="178.01" transform="translate(125.87 -52.15) rotate(45)"/>
      <rect class="cls-2" x="36.88" y="288.6" width="178.01" height="178.01" transform="translate(303.88 21.58) rotate(45)"/>
      <path class="cls-3" d="M251.86,65.76h-1.54c-24.43,0-43.12-1.47-51.65-2.3-44.14-4.31-51.54-11.08-62.85-5.39-21.08,10.62-7.61,40.31-24.9,108.1-11.78,46.13-25.59,62.2-18.41,94.25,1.81,8.09,7.5,19.32,18.87,41.77,17.37,34.29,27,52.4,43.14,76.21,44.53,65.48,75.37,77.29,84.34,80.36a116.91,116.91,0,0,0,11.55,3.29l1.32.14"/>
      <path class="cls-4" d="M251.61,65.76h1.54c24.43,0,43.12-1.47,51.65-2.3,44.14-4.31,51.54-11.08,62.85-5.39,21.08,10.62,7.61,40.31,24.91,108.1,11.77,46.13,25.58,62.2,18.4,94.25-1.81,8.09-7.5,19.32-18.87,41.77-17.37,34.29-26.95,52.4-43.14,76.21-44.52,65.48-75.36,77.29-84.34,80.36a116.91,116.91,0,0,1-11.55,3.29l-1.31.14"/>
      <path class="cls-4" d="M215.76,367c-.22.94,7.14,3.61,13.15,5.32a104.29,104.29,0,0,0,22.81,3.82v11.75c-.88,0-2.2,0-3.79-.05-5.59-.24-16.92-.67-28-7.18a49.18,49.18,0,0,1-12.36-10.46c-6.73-7.93-10.13-17.05-8.73-18.05,1.55-1.1,7.62,8.8,16.16,8a16,16,0,0,0,5.06-1.44c4.09-2,5.51-4.87,10.3-6.26a11.38,11.38,0,0,1,1.56-.37c2.53-.28,4.89,1.09,13.31,2.07,2.73.31,5,.46,6.51.53v13.92c-4.79,0-11.76-.05-20.2-.69C221.86,367.25,216,366.21,215.76,367Z"/>
      <path class="cls-3" d="M287.71,367c.22.94-7.13,3.61-13.15,5.32a104.29,104.29,0,0,1-22.81,3.82v11.75c.89,0,2.2,0,3.8-.05,5.58-.24,16.91-.67,28-7.18a49,49,0,0,0,12.36-10.46c6.73-7.93,10.13-17.05,8.73-18.05s-7.62,8.8-16.16,8a16,16,0,0,1-5.06-1.44c-4.09-2-5.51-4.87-10.3-6.26a11.38,11.38,0,0,0-1.56-.37c-2.53-.28-4.89,1.09-13.31,2.07-2.73.31-5,.46-6.51.53v13.92c4.79,0,11.77-.05,20.21-.69C281.61,367.25,287.52,366.21,287.71,367Z"/>
      <g>
        <path class="cls-4" d="M153.65,186.62a110.22,110.22,0,0,1-30.52-8.09c-2.71,3.19-11.93,14.82-11.48,31.57a45.46,45.46,0,0,0,5.48,20.34,16.79,16.79,0,0,1,25.56,15.13l12.78-2.6c38.33-7.81,48.3-10.15,55.13-8.26a13.49,13.49,0,0,1,3.11,1.21c6.31,3.44,6.06,10,9.2,11.15,3.69,1.32,11-5.39,14.38-12.73,7.64-16.36.27-44.48-16.53-53.2C203.49,172.18,188.85,190.62,153.65,186.62Z"/>
        <path class="cls-4" d="M142.79,183.93a2.93,2.93,0,0,1-2.25.63,20.1,20.1,0,0,0,25.89,2.87,24.57,24.57,0,0,1-5.4-1.64c-1.73-.76-9.57-4.42-15.73-17.43-5.79-12.24-5-21.92-6.06-21.87s-4.42,11.64-.46,23.3C140.84,175.88,144.83,181.87,142.79,183.93Z"/>
        <circle class="cls-4" cx="140.08" cy="148.01" r="7.83"/>
        <path class="cls-4" d="M164.41,180.73c.61,1.53,1.88,4.23.83,5.32s-3.67.1-5.71-.82c.72.65,8,7.07,16.81,4.81a16.69,16.69,0,0,0,7.49-4.3,10.07,10.07,0,0,1-5.63-.15c-7.59-2.63-9.19-15.39-9.82-20.48-1.64-13.11,2.16-22.41,1.24-22.66s-4.94,7.54-6.1,17.12C162.51,167.93,161.76,174.15,164.41,180.73Z"/>
        <circle class="cls-4" cx="169.94" cy="144.16" r="7.83"/>
        <path class="cls-4" d="M183.63,175.66c-.7,4.68-.85,8.61-3.23,9.65-1.76.78-4-.36-5.62-1.48a16.09,16.09,0,0,0,12,5.33c8.4-.21,12.78-7.36,13-7.81a5.43,5.43,0,0,1-3.89-.21c-4.43-2.28-3.57-12.48-2.35-18.24,2.72-12.82,10.7-19.74,9.86-20.44-1.05-.86-9.72,6.86-15.71,17.22A34.54,34.54,0,0,0,183.63,175.66Z"/>
        <circle class="cls-4" cx="203.1" cy="144.16" r="7.83"/>
      </g>
      <g>
        <path class="cls-3" d="M349.83,186.62a110.33,110.33,0,0,0,30.52-8.09c2.71,3.19,11.92,14.82,11.48,31.57a45.73,45.73,0,0,1-5.48,20.34,16.8,16.8,0,0,0-25.57,15.13L348,243c-38.33-7.81-48.3-10.15-55.12-8.26a13.54,13.54,0,0,0-3.12,1.21c-6.31,3.44-6.06,10-9.2,11.15-3.69,1.32-10.94-5.39-14.37-12.73-7.65-16.36-.28-44.48,16.53-53.2C300,172.18,314.62,190.62,349.83,186.62Z"/>
        <path class="cls-3" d="M360.68,183.93a2.94,2.94,0,0,0,2.25.63A20.1,20.1,0,0,1,337,187.43a24.41,24.41,0,0,0,5.4-1.64c1.74-.76,9.57-4.42,15.73-17.43,5.8-12.24,5-21.92,6.07-21.87s4.42,11.64.46,23.3C362.63,175.88,358.64,181.87,360.68,183.93Z"/>
        <circle class="cls-3" cx="363.39" cy="148.01" r="7.83"/>
        <path class="cls-3" d="M339.06,180.73c-.61,1.53-1.88,4.23-.83,5.32s3.67.1,5.71-.82c-.72.65-8,7.07-16.81,4.81a16.65,16.65,0,0,1-7.48-4.3,10,10,0,0,0,5.62-.15c7.6-2.63,9.19-15.39,9.83-20.48,1.64-13.11-2.16-22.41-1.25-22.66s4.94,7.54,6.1,17.12C341,167.93,341.71,174.15,339.06,180.73Z"/>
        <circle class="cls-3" cx="333.54" cy="144.16" r="7.83"/>
        <path class="cls-3" d="M319.84,175.66c.7,4.68.85,8.61,3.23,9.65,1.76.78,4-.36,5.63-1.48a16.12,16.12,0,0,1-12,5.33c-8.39-.21-12.77-7.36-13-7.81a5.46,5.46,0,0,0,3.9-.21c4.42-2.28,3.57-12.48,2.34-18.24-2.72-12.82-10.7-19.74-9.86-20.44,1.05-.86,9.73,6.86,15.71,17.22A34.54,34.54,0,0,1,319.84,175.66Z"/>
        <circle class="cls-3" cx="300.37" cy="144.16" r="7.83"/>
      </g>
      <path class="cls-4" d="M303.65,202.87c17.64-10.87,37.34-4.72,41.72-3.31a60.38,60.38,0,0,1,13,6,30.51,30.51,0,0,1-7.19,9.8c-8.4,7.54-18.88,8-23,8.15-9.54.3-11.83-2.8-25.32-3.81a93.9,93.9,0,0,0-14.82.06A44.26,44.26,0,0,1,303.65,202.87Z"/>
      <path class="cls-3" d="M199.88,202.87c-17.64-10.87-37.35-4.72-41.73-3.31a60.26,60.26,0,0,0-13,6,30.21,30.21,0,0,0,7.19,9.8c8.39,7.54,18.87,8,23,8.15,9.55.3,11.84-2.8,25.33-3.81a93.92,93.92,0,0,1,14.82.06A44.34,44.34,0,0,0,199.88,202.87Z"/>
      <path class="cls-4" d="M251.76,324.49a19.36,19.36,0,0,1-2.47-.1,18.8,18.8,0,0,1-5-1.24c-4.9-1.91-5-3.09-8.08-4-3.94-1.13-5.34.5-7.34-.82-2.57-1.69-2.68-7.06-.92-10.73,1.29-2.68,2.76-2.74,5.29-5.58,4.4-4.93,6.27-11.82,5.08-12.62s-7.06,4.83-10.76,9.88-6.09,7.19-6.71,10.5c-.3,1.59.08,1.1,1,11.16.37,4.11.44,5.71,1.63,6.42,1.56.92,3-.88,6.75-1.66.4-.09,6.82-1.33,12.43,1.66,1.75.94,3.75,2.46,7.15,2.87a13.33,13.33,0,0,0,1.92.1Z"/>
      <path class="cls-3" d="M251.71,324.49a19.36,19.36,0,0,0,2.47-.1,18.69,18.69,0,0,0,5-1.24c4.9-1.91,5-3.09,8.08-4,3.94-1.13,5.34.5,7.34-.82,2.57-1.69,2.68-7.06.92-10.73-1.29-2.68-2.76-2.74-5.28-5.58-4.41-4.93-6.28-11.82-5.09-12.62s7.06,4.83,10.76,9.88,6.1,7.19,6.72,10.5c.29,1.59-.09,1.1-1,11.16-.37,4.11-.44,5.71-1.63,6.42-1.56.92-3-.88-6.75-1.66-.4-.09-6.81-1.33-12.43,1.66-1.75.94-3.75,2.46-7.15,2.87a13.26,13.26,0,0,1-1.91.1Z"/>
      <path class="cls-3" d="M345.49,287.93a14.25,14.25,0,0,1-1.7,2.74,13.48,13.48,0,0,1-2.9,2.66,75.7,75.7,0,0,0-9.35,8,55.36,55.36,0,0,0-7,9.23c-.43.69-.8,1.31-1.09,1.81a.3.3,0,0,1-.53,0c-.3-.5-.66-1.12-1.1-1.81a54.63,54.63,0,0,0-7-9.23,75,75,0,0,0-9.36-8,13.21,13.21,0,0,1-4.59-5.4,17.12,17.12,0,0,1-1.84-8.45c.06-1,.64-8.76,7-12a12.88,12.88,0,0,1,9.72-.5,13.73,13.73,0,0,1,7.42,6.08,13.77,13.77,0,0,1,7.42-6.08,12.9,12.9,0,0,1,9.73.5c6.36,3.19,6.95,11,7,12A17.24,17.24,0,0,1,345.49,287.93Z"/>
    </g>
  </g>
</svg>
