<svg xmlns="http://www.w3.org/2000/svg" viewBox="0 0 503.57 503.57">
  <defs>
    <style>
      .cls-1 {
        fill: #1bb586;
      }

      .cls-2 {
        fill: #31d294;
      }

      .cls-3 {
        fill: #fff;
      }

      .cls-4 {
        fill: #3ee492;
      }
    </style>
  </defs>
  <g id="Слой_2" data-name="Слой 2">
    <g id="Шут_Яулльэ_" data-name="Шут (Яулльэ)">
      <rect class="cls-1" width="503.57" height="503.57" rx="55"/>
      <rect class="cls-2" x="288.65" y="36.87" width="178.01" height="178.01" transform="translate(199.61 -230.17) rotate(45)"/>
      <rect class="cls-2" x="288.65" y="288.6" width="178.01" height="178.01" transform="translate(377.62 -156.44) rotate(45)"/>
      <rect class="cls-2" x="36.88" y="36.87" width="178.01" height="178.01" transform="translate(125.87 -52.15) rotate(45)"/>
      <rect class="cls-2" x="36.88" y="288.6" width="178.01" height="178.01" transform="translate(303.88 21.58) rotate(45)"/>
      <path class="cls-3" d="M251.86,65.76h-1.54c-24.43,0-43.12-1.47-51.65-2.3-44.14-4.31-51.54-11.08-62.85-5.39-21.08,10.62-7.61,40.31-24.9,108.1-11.78,46.13-25.59,62.2-18.41,94.25,1.81,8.09,7.5,19.32,18.87,41.77,17.37,34.29,27,52.4,43.14,76.21,44.53,65.48,75.37,77.29,84.34,80.36a116.91,116.91,0,0,0,11.55,3.29l1.32.14"/>
      <path class="cls-4" d="M251.61,65.76h1.54c24.43,0,43.12-1.47,51.65-2.3,44.14-4.31,51.54-11.08,62.85-5.39,21.08,10.62,7.61,40.31,24.91,108.1,11.77,46.13,25.58,62.2,18.4,94.25-1.81,8.09-7.5,19.32-18.87,41.77-17.37,34.29-26.95,52.4-43.14,76.21-44.52,65.48-75.36,77.29-84.34,80.36a116.91,116.91,0,0,1-11.55,3.29l-1.31.14"/>
      <path class="cls-4" d="M140.15,171.75c-.89,3.85,5.22,8.55,9.79,11.52A38,38,0,0,0,130.17,190c-11.42,8.16-13.34,21-13.89,24.39A40.73,40.73,0,0,0,117,231c7.65,27.55,52.22,38.32,54.66,34.17,1.1-1.88-7.26-5.4-6.66-11.22,1.22-11.64,37.51-24.31,58.9-11.54,9,5.38,11.94,13.15,14.28,12.32,6-2.12,7.16-37.6-12.72-62,0,0-21-25.86-57.2-27.39l-.75,0-2.12,0C163.76,165.19,141.7,165,140.15,171.75Z"/>
      <path class="cls-3" d="M363.33,171.75c.88,3.85-5.23,8.55-9.79,11.52A38,38,0,0,1,373.3,190c11.43,8.16,13.34,21,13.9,24.39a40.79,40.79,0,0,1-.72,16.57c-7.64,27.55-52.22,38.32-54.65,34.17-1.11-1.88,7.26-5.4,6.65-11.22-1.22-11.64-37.5-24.31-58.89-11.54-9,5.38-11.95,13.15-14.29,12.32-6-2.12-7.15-37.6,12.72-62,0,0,21.05-25.86,57.21-27.39l.74,0,2.12,0C339.71,165.19,361.77,165,363.33,171.75Z"/>
      <path class="cls-4" d="M210,368.92a85.69,85.69,0,0,0,9.93,2.52,114.46,114.46,0,0,0,16,1.66c4.2.26,9.53.47,15.76.42v14.41c-1.67-.08-4.29-.25-7.48-.64-7.52-.92-24.17-3.19-40.1-14.54a74.64,74.64,0,0,1-9.66-8.22,33.45,33.45,0,0,0,7.87-.29,37.66,37.66,0,0,0,9.94-3.17c12.54-5.4,14.52-7.25,20.48-8.39,3.38-.65,6.12-1.15,9.16-.06a29.46,29.46,0,0,0,5.05,1.74,19.59,19.59,0,0,0,4.74.4v9.92a72.77,72.77,0,0,0-16.09.73c-5.28.84-8.18,2-14.58,2.86A82.44,82.44,0,0,1,210,368.92Z"/>
      <path class="cls-3" d="M293.43,368.92a85.69,85.69,0,0,1-9.93,2.52,114.46,114.46,0,0,1-16,1.66c-4.2.26-9.53.47-15.76.42v14.41c1.67-.08,4.29-.25,7.48-.64,7.52-.92,24.17-3.19,40.11-14.54a75.37,75.37,0,0,0,9.65-8.22,33.45,33.45,0,0,1-7.87-.29,37.66,37.66,0,0,1-9.94-3.17c-12.54-5.4-14.52-7.25-20.48-8.39-3.38-.65-6.12-1.15-9.16-.06a29.46,29.46,0,0,1-5.05,1.74,19.59,19.59,0,0,1-4.74.4v9.92a72.77,72.77,0,0,1,16.09.73c5.28.84,8.18,2,14.58,2.86A82.44,82.44,0,0,0,293.43,368.92Z"/>
      <path class="cls-3" d="M198,195.88c-3.86-1.7-22.16-9.13-40.21.2a43.57,43.57,0,0,0-15.74,14A115.26,115.26,0,0,0,174.21,221a116.42,116.42,0,0,0,48.44-1.63C220.45,215.11,213.28,202.59,198,195.88Z"/>
      <path class="cls-4" d="M305.48,195.88c3.86-1.7,22.16-9.13,40.21.2a43.57,43.57,0,0,1,15.74,14A115,115,0,0,1,329.26,221a116.37,116.37,0,0,1-48.43-1.63A51.55,51.55,0,0,1,305.48,195.88Z"/>
      <path class="cls-4" d="M251.7,323.18a21.43,21.43,0,0,1-2.23-.5c-6.23-1.78-7.31-5.24-10.91-5-2.44.13-3.45,1.82-5.34,1.06a4.57,4.57,0,0,1-2.23-2.36c-2.75-5.79,4.17-15.21,3.46-15.66-.35-.22-2.29,2-4.6,5.38-4.36,6.44-6.56,9.69-6,13.67s3.69,7.43,5.64,7.14c1.14-.18,1.29-1.57,3.18-2.51.51-.26,1.62-.6,4.61-.46a21.54,21.54,0,0,1,11.94,4.3,22.55,22.55,0,0,1,2.44,2.16Z"/>
      <path class="cls-3" d="M251.7,323.18a21.43,21.43,0,0,0,2.23-.5c6.23-1.78,7.31-5.24,10.91-5,2.44.13,3.45,1.82,5.34,1.06a4.5,4.5,0,0,0,2.22-2.36c2.76-5.79-4.16-15.21-3.45-15.66.35-.22,2.29,2,4.59,5.38,4.37,6.44,6.57,9.69,6,13.67s-3.69,7.43-5.64,7.14c-1.15-.18-1.29-1.57-3.18-2.51-.51-.26-1.62-.6-4.61-.46a21.52,21.52,0,0,0-11.94,4.3,22.55,22.55,0,0,0-2.44,2.16Z"/>
      <polygon class="cls-4" points="208 294.05 194.78 267.61 181.56 294.05 194.78 320.49 208 294.05"/>
      <path class="cls-3" d="M144.93,239.81a8.05,8.05,0,0,1-1.39,4l0,0a3,3,0,0,1-4.94,0l0,0a7.85,7.85,0,0,1-1.39-4c-.48-4.16,1.16-6.87,2.47-12.05a48.62,48.62,0,0,0,1.16-6.27.26.26,0,1,1,.52,0,50.71,50.71,0,0,0,1.15,6.27C143.77,232.94,145.4,235.65,144.93,239.81Z"/>
      <g>
        <circle class="cls-3" cx="308.69" cy="103.4" r="12.37"/>
        <circle class="cls-3" cx="325.62" cy="124.84" r="12.37"/>
        <path class="cls-3" d="M321,114.41c-.06-.24-.26-.49-.73-.71l-.57.26c-.74.34-.75.39-1,.45a1.69,1.69,0,0,1-1.57-.28,1.29,1.29,0,0,1-.31-1.24,3.11,3.11,0,0,1,.51-.68l.45-.53a6.46,6.46,0,0,0-2.21,0c-5.32.88-9,8.4-7.67,9.88C309.71,123.48,321.65,116.82,321,114.41Z"/>
        <circle class="cls-3" cx="291.76" cy="124.84" r="12.38"/>
        <path class="cls-3" d="M296.36,114.41c.06-.24.26-.49.73-.71l.57.26c.74.34.76.39,1,.45a1.69,1.69,0,0,0,1.57-.28,1.29,1.29,0,0,0,.31-1.24,3.11,3.11,0,0,0-.51-.68l-.45-.53a6.46,6.46,0,0,1,2.21,0c5.32.88,9,8.4,7.67,9.88C307.67,123.48,295.73,116.82,296.36,114.41Z"/>
        <circle class="cls-3" cx="308.69" cy="116.3" r="1.58"/>
        <path class="cls-3" d="M315.28,119.94a5,5,0,0,0-5.83-.74c-3.48,2.12-1.79,9-.83,9.14.23,0,.47-.28.65-.59,1.4-1.2,2.84-1.78,3.48-1.32a4.45,4.45,0,0,1,.95,1.77,6.14,6.14,0,0,1,.22.62C317.1,126.15,317.26,121.94,315.28,119.94Z"/>
        <path class="cls-3" d="M302.1,119.94a5,5,0,0,1,5.83-.74c3.48,2.12,1.79,9,.83,9.14-.23,0-.47-.28-.65-.59-1.4-1.2-2.84-1.78-3.48-1.32a4.58,4.58,0,0,0-.95,1.77c-.1.25-.17.47-.22.62C300.28,126.15,300.12,121.94,302.1,119.94Z"/>
        <path class="cls-3" d="M299.55,146c.09.24.42.33.54.36a28.57,28.57,0,0,1,6.25,3,8.23,8.23,0,0,1,1.92,1.83.6.6,0,0,0,.18.23.43.43,0,0,0,.5,0,.6.6,0,0,0,.18-.23,8.23,8.23,0,0,1,1.92-1.83,28.57,28.57,0,0,1,6.25-3c.12,0,.45-.12.54-.36s-.21-.65-.3-.75c-.68-.81-5.49-7.4-6.6-12.52-.57-2.64-.38-5.89.78-6.32a1.64,1.64,0,0,1,1.41.43,1.65,1.65,0,0,0-.19-.62,2,2,0,0,0-1.54-.84,3,3,0,0,0-2.7,1.95,3,3,0,0,0-2.7-1.95,2,2,0,0,0-1.54.84,1.65,1.65,0,0,0-.19.62,1.64,1.64,0,0,1,1.41-.43c1.16.43,1.35,3.68.78,6.32-1.11,5.12-5.92,11.71-6.6,12.52C299.76,145.37,299.45,145.72,299.55,146Z"/>
      </g>
    </g>
  </g>
</svg>
