<svg xmlns="http://www.w3.org/2000/svg" viewBox="0 0 503.57 503.57">
  <defs>
    <style>
      .cls-1 {
        fill: #b40040;
      }

      .cls-2 {
        fill: #d20040;
      }

      .cls-3 {
        fill: #1d1d1d;
      }

      .cls-4 {
        fill: #ff0040;
      }
    </style>
  </defs>
  <g id="Слой_2" data-name="Слой 2">
    <g id="Шут_для_Синди_" data-name="Шут (для Синди)">
      <rect class="cls-1" width="503.57" height="503.57" rx="55"/>
      <rect class="cls-2" x="288.65" y="36.87" width="178.01" height="178.01" transform="translate(199.61 -230.17) rotate(45)"/>
      <rect class="cls-2" x="288.65" y="288.6" width="178.01" height="178.01" transform="translate(377.62 -156.44) rotate(45)"/>
      <rect class="cls-2" x="36.88" y="36.87" width="178.01" height="178.01" transform="translate(125.87 -52.15) rotate(45)"/>
      <rect class="cls-2" x="36.88" y="288.6" width="178.01" height="178.01" transform="translate(303.88 21.58) rotate(45)"/>
      <path class="cls-3" d="M251.86,65.76h-1.54c-24.43,0-43.12-1.47-51.65-2.3-44.14-4.31-51.54-11.08-62.85-5.39-21.08,10.62-7.61,40.31-24.9,108.1-11.78,46.13-25.59,62.2-18.41,94.25,1.81,8.09,7.5,19.32,18.87,41.77,17.37,34.29,27,52.4,43.14,76.21,44.53,65.48,75.37,77.29,84.34,80.36a116.91,116.91,0,0,0,11.55,3.29l1.32.14"/>
      <path class="cls-4" d="M251.61,65.76h1.54c24.43,0,43.12-1.47,51.65-2.3,44.14-4.31,51.54-11.08,62.85-5.39,21.08,10.62,7.61,40.31,24.91,108.1,11.77,46.13,25.58,62.2,18.4,94.25-1.81,8.09-7.5,19.32-18.87,41.77-17.37,34.29-26.95,52.4-43.14,76.21-44.52,65.48-75.36,77.29-84.34,80.36a116.91,116.91,0,0,1-11.55,3.29l-1.31.14"/>
      <path class="cls-4" d="M205.93,368.9a154,154,0,0,0,45.79,5.28v13.75c-1.11,0-2.39,0-3.79-.05a94.71,94.71,0,0,1-29.49-5.38,85.4,85.4,0,0,1-29.76-18.91,25.13,25.13,0,0,0,8,1.36c10.8,0,18.81-7.33,32-12.21,0,0,7-2.59,11.29-.87.11.05.89.37,2,.75.69.24,1.55.52,2.54.79a42.78,42.78,0,0,0,7.26,1.35v8.92a74.67,74.67,0,0,0-19.06,1.76c-5,1.15-8.16,2.45-14.15,3.2A60.92,60.92,0,0,1,205.93,368.9Z"/>
      <path class="cls-3" d="M297.5,368.9a154,154,0,0,1-45.8,5.28q0,6.88,0,13.75c1.11,0,2.39,0,3.79-.05A94.71,94.71,0,0,0,285,382.5a85.4,85.4,0,0,0,29.76-18.91,25.13,25.13,0,0,1-8,1.36c-10.8,0-18.82-7.33-32-12.21,0,0-7-2.59-11.29-.87-.11.05-.89.37-2,.75-.7.24-1.55.52-2.54.79a42.78,42.78,0,0,1-7.26,1.35v8.92a74.59,74.59,0,0,1,19,1.76c5,1.15,8.17,2.45,14.16,3.2A60.92,60.92,0,0,0,297.5,368.9Z"/>
      <path class="cls-4" d="M169.53,306.89c.79,6.89,3.09,10.18,3.85,11.17l.07.1c3.82,4.94,9.88,4.94,13.7,0l.07-.1c.76-1,3.06-4.28,3.85-11.17,1.31-11.52-3.21-19-6.85-33.37a135.35,135.35,0,0,1-3.2-17.35.73.73,0,1,0-1.45,0,135.62,135.62,0,0,1-3.19,17.35C172.74,287.88,168.21,295.37,169.53,306.89Z"/>
      <path class="cls-3" d="M307.37,172.92c10.78,3.5,23.08,10.6,40.69,13.11,3.94.56,10.18,1.18,12.83-2.3,1.91-2.51,1.14-6.07.67-8.07-2.54-10.95-13.85-17.18-17.86-19.17,7.3,1,19.24,3.79,29.6,12.91,17.95,15.79,26.18,45.58,15.27,58.87a19,19,0,0,1-5.48,4.52,24.63,24.63,0,0,0,2-6.55c.44-2.91,1.34-8.5-1.3-11.19-4.86-5-17.27-1.43-20.32,5-2.75,5.79,3.47,11.1.92,15.37-2.85,4.79-13.5,2.91-27,1.07-27.8-3.79-41.85-5.6-49.23-1.71C282,238,274.43,245.9,271.56,268c-9.82-43.56-5-58.79,2.62-63.62,3-1.89,7.26-2.78,9.12-6.82,3.39-7.35-4.42-18.24-11.93-26.6C287.72,168.18,299.57,170.39,307.37,172.92Z"/>
      <path class="cls-4" d="M303.65,202.87c17.64-10.87,37.34-4.72,41.72-3.31a60.38,60.38,0,0,1,13,6,30.51,30.51,0,0,1-7.19,9.8c-8.4,7.54-18.88,8-23,8.15-9.54.3-11.83-2.8-25.32-3.81a93.9,93.9,0,0,0-14.82.06A44.26,44.26,0,0,1,303.65,202.87Z"/>
      <path class="cls-4" d="M196.1,172.92c-10.77,3.5-23.08,10.6-40.69,13.11-3.94.56-10.18,1.18-12.83-2.3-1.91-2.51-1.14-6.07-.67-8.07,2.54-10.95,13.85-17.18,17.87-19.17-7.31,1-19.24,3.79-29.61,12.91C112.22,185.19,104,215,114.9,228.27a19,19,0,0,0,5.49,4.52,24.6,24.6,0,0,1-2-6.55c-.44-2.91-1.34-8.5,1.3-11.19,4.86-5,17.27-1.43,20.32,5,2.75,5.79-3.46,11.1-.92,15.37,2.85,4.79,13.5,2.91,27,1.07,27.79-3.79,41.84-5.6,49.23-1.71,6.12,3.23,13.71,11.13,16.57,33.24,9.82-43.56,5-58.79-2.62-63.62-3-1.89-7.26-2.78-9.12-6.82-3.39-7.35,4.43-18.24,11.93-26.6C215.75,168.18,203.9,170.39,196.1,172.92Z"/>
      <path class="cls-3" d="M199.88,202.87c-17.64-10.87-37.35-4.72-41.73-3.31a60.26,60.26,0,0,0-13,6,30.21,30.21,0,0,0,7.19,9.8c8.39,7.54,18.87,8,23,8.15,9.55.3,11.84-2.8,25.33-3.81a93.92,93.92,0,0,1,14.82.06A44.34,44.34,0,0,0,199.88,202.87Z"/>
      <path class="cls-4" d="M251.76,324.49a19.36,19.36,0,0,1-2.47-.1,17.19,17.19,0,0,1-5-1.24c-2-.87-2-1.53-4.27-3.16-2.64-1.87-5.26-3.7-8-3.26-2.34.37-3.41,2.2-4.89,1.56a2.86,2.86,0,0,1-1.44-1.82c-1.4-3.69.14-8.17.78-9.92a48.41,48.41,0,0,1,7-12.52,39.37,39.37,0,0,0-15.84,33.85c5-3.08,8.91-3.54,11.56-3.41,5.68.28,13.32,3.65,13.94,3.93a20.88,20.88,0,0,0,6.69,1.86c.82.08,1.49.1,1.92.1Z"/>
      <path class="cls-3" d="M251.7,324.49a19.36,19.36,0,0,0,2.47-.1,17.19,17.19,0,0,0,5-1.24c1.95-.87,2-1.53,4.27-3.16,2.64-1.87,5.26-3.7,8-3.26,2.34.37,3.41,2.2,4.89,1.56a2.86,2.86,0,0,0,1.44-1.82c1.4-3.69-.14-8.17-.79-9.92A48.11,48.11,0,0,0,270,294a39.35,39.35,0,0,1,15.85,33.85c-5-3.08-8.91-3.54-11.56-3.41-5.68.28-13.32,3.65-13.94,3.93a20.88,20.88,0,0,1-6.69,1.86c-.82.08-1.5.1-1.92.1Z"/>
    </g>
  </g>
</svg>
