<svg xmlns="http://www.w3.org/2000/svg" viewBox="0 0 503.57 503.57">
  <defs>
    <style>
      .cls-1 {
        fill: #444;
      }

      .cls-2 {
        fill: #555;
      }

      .cls-3 {
        fill: #eee;
      }

      .cls-4 {
        fill: #333;
      }
    </style>
  </defs>
  <g id="Слой_2" data-name="Слой 2">
    <g id="Шут_Меланхо_" data-name="Шут (Меланхо)">
      <rect class="cls-1" width="503.57" height="503.57" rx="55"/>
      <rect class="cls-2" x="288.65" y="36.87" width="178.01" height="178.01" transform="translate(199.61 -230.17) rotate(45)"/>
      <rect class="cls-2" x="288.65" y="288.6" width="178.01" height="178.01" transform="translate(377.62 -156.44) rotate(45)"/>
      <rect class="cls-2" x="36.88" y="36.87" width="178.01" height="178.01" transform="translate(125.87 -52.15) rotate(45)"/>
      <rect class="cls-2" x="36.88" y="288.6" width="178.01" height="178.01" transform="translate(303.88 21.58) rotate(45)"/>
      <path class="cls-3" d="M251.86,65.76h-1.54c-24.43,0-43.12-1.47-51.65-2.3-44.14-4.31-51.54-11.08-62.85-5.39-21.08,10.62-7.61,40.31-24.9,108.1-11.78,46.13-25.59,62.2-18.41,94.25,1.81,8.09,7.5,19.32,18.87,41.77,17.37,34.29,27,52.4,43.14,76.21,44.53,65.48,75.37,77.29,84.34,80.36a116.91,116.91,0,0,0,11.55,3.29l1.32.14"/>
      <path class="cls-4" d="M251.61,65.76h1.54c24.43,0,43.12-1.47,51.65-2.3,44.14-4.31,51.54-11.08,62.85-5.39,21.08,10.62,7.61,40.31,24.91,108.1,11.77,46.13,25.58,62.2,18.4,94.25-1.81,8.09-7.5,19.32-18.87,41.77-17.37,34.29-26.95,52.4-43.14,76.21-44.52,65.48-75.36,77.29-84.34,80.36a116.91,116.91,0,0,1-11.55,3.29l-1.31.14"/>
      <path class="cls-3" d="M290.2,372.63c-.24.69-8.9-2.72-21.12-4.06a95.15,95.15,0,0,0-19.17-.13l.13,16.44a29,29,0,0,0,5.35.65c8.52.24,14.73-3.44,17.55-4.79,5.3-2.52,14.06-4.16,29,.62a41.14,41.14,0,0,0-6.26-11.74c-5.23-6.85-11.14-10.15-15.46-12.49-3.67-2-15.78-8.57-20.54-5a11.32,11.32,0,0,1-4.56,2.48,10.34,10.34,0,0,1-4,.14q-.68,4.71-1.37,9.41a71.31,71.31,0,0,1,26.9,2.35C284,368.65,290.41,372,290.2,372.63Z"/>
      <path class="cls-4" d="M136.43,191.31a149.93,149.93,0,0,0-25.3,8.09c4.58,4.22,11.4,10.22,20.08,17,10.17,7.88,15.25,11.82,19.31,13.56,15.82,6.79,33.43,3.4,45.65,1.05,6.94-1.34,9.83-2.55,16.38-2.61a58.85,58.85,0,0,1,23.79,4.95c-2.59-8-10.48-28.38-30.39-39-17.24-9.19-36.52-7.34-51.78-5.87A155.71,155.71,0,0,0,136.43,191.31Z"/>
      <path class="cls-3" d="M380.35,178.53c1.53,2.93,10.45,20.52,2.6,35.87-7.64,14.95-26.34,18.32-33.26,19.57-24.18,4.35-36.24-8.1-59.09-.4a58,58,0,0,0-14.08,7.05c-.16-8.8.92-26.7,12.91-42.26C307.87,174.43,344.54,165.9,380.35,178.53Z"/>
      <path class="cls-4" d="M303.65,202.87c17.64-10.87,37.34-4.72,41.72-3.31a60.38,60.38,0,0,1,13,6,30.51,30.51,0,0,1-7.19,9.8c-8.4,7.54-18.88,8-23,8.15-9.54.3-11.83-2.8-25.32-3.81a93.9,93.9,0,0,0-14.82.06A44.26,44.26,0,0,1,303.65,202.87Z"/>
      <path class="cls-3" d="M183,213.57c-7.58,1-13.11,3.56-21.27,1.74-7.53-1.67-13-6.15-16.54-9.77a30.21,30.21,0,0,0,7.19,9.8c8.39,7.54,18.87,8,23,8.15,9.55.3,11.84-2.8,25.33-3.81a93.92,93.92,0,0,1,14.82.06C201.41,213.06,190.53,212.6,183,213.57Z"/>
      <path class="cls-3" d="M251.71,324.49a19.36,19.36,0,0,0,2.47-.1,11.21,11.21,0,0,0,5-1.24,7.52,7.52,0,0,0,3-4.66,24.65,24.65,0,0,1,13.31-1,13.61,13.61,0,0,0,.91-4.08,13.77,13.77,0,0,0-.91-5.8l-5.28-5.58a23.16,23.16,0,0,1-2.55-6.72,23.47,23.47,0,0,1-.39-7q4.15,5.42,8.61,10.95,4.26,5.29,8.48,10.31a19.19,19.19,0,0,1-.39,10.3,18.74,18.74,0,0,1-2.88,5.48A14.54,14.54,0,0,0,276,324c-3.53-.32-6.71.95-12.91,3.52a29.48,29.48,0,0,1-9.44,2.77c-.8.07-1.47.1-1.91.1a5,5,0,0,1-1-2.82A5.15,5.15,0,0,1,251.71,324.49Z"/>
      <path class="cls-3" d="M279.58,238.27c2.58-1.56,8-4.29,13.37-2.61,9.49,3,11.64,17.23,12.26,21.39,2.4,15.93-4.7,24.11-8.74,39.52-8.14,31.09,4.72,59,5.29,58.9.75-.12-8.95-22.69-1.57-50.09,5.25-19.47,13.86-22.82,15.47-42.83.49-6.05.52-16,4.94-17.5,2.55-.85,5.46,1.47,6.39,2.22,10.57,8.46,10.72,33.57,4.57,55.7C325,326.53,313,340.65,314.08,341.38s12.43-11.45,20.94-28.76c10.4-21.18,14.36-46.14,8.84-56a12.15,12.15,0,0,1-2.19-7c0-.27.31-4.93,3.36-6.56,3.61-1.93,8.73,1.64,9.23,2,10.94,7.65,8.05,34.78,1.47,53.87-4.42,12.84-10.43,21.78-9.56,22.31s7.3-7.28,12.52-16.44c5.72-10,16.74-29.36,14.61-52.17-.78-8.32-3.43-18.44,2.27-28.61A28.75,28.75,0,0,1,379,219.1c-22.94,7.59-41.13,7.76-54,6.26-17.28-2-33.46-8.05-41.35.13C280.16,229.15,279.54,234.36,279.58,238.27Z"/>
      <circle class="cls-3" cx="311.44" cy="213.52" r="15.16"/>
    </g>
  </g>
</svg>
